<?xml version="1.0" encoding="UTF-8" standalone="no"?>
<!-- Created with Inkscape (http://www.inkscape.org/) -->

<svg
   xmlns:dc="http://purl.org/dc/elements/1.1/"
   xmlns:cc="http://creativecommons.org/ns#"
   xmlns:rdf="http://www.w3.org/1999/02/22-rdf-syntax-ns#"
   xmlns:svg="http://www.w3.org/2000/svg"
   xmlns="http://www.w3.org/2000/svg"
   xmlns:sodipodi="http://sodipodi.sourceforge.net/DTD/sodipodi-0.dtd"
   xmlns:inkscape="http://www.inkscape.org/namespaces/inkscape"
   width="2104.7244"
   height="1488.189"
   id="svg2"
   version="1.1"
   inkscape:version="0.48.3.1 r9886"
   sodipodi:docname="poster.svg">
  <defs
     id="defs4">
    <inkscape:path-effect
       effect="spiro"
       id="path-effect2987"
       is_visible="true" />
    <inkscape:path-effect
       effect="spiro"
       id="path-effect2987-1"
       is_visible="true" />
  </defs>
  <sodipodi:namedview
     id="base"
     pagecolor="#ffffff"
     bordercolor="#666666"
     borderopacity="1.0"
     inkscape:pageopacity="0.0"
     inkscape:pageshadow="2"
     inkscape:zoom="0.35"
     inkscape:cx="926.00429"
     inkscape:cy="769.02629"
     inkscape:document-units="mm"
     inkscape:current-layer="layer1"
     showgrid="false"
     units="mm"
     inkscape:window-width="1366"
     inkscape:window-height="709"
     inkscape:window-x="0"
     inkscape:window-y="27"
     inkscape:window-maximized="1" />
  <metadata
     id="metadata7">
    <rdf:RDF>
      <cc:Work
         rdf:about="">
        <dc:format>image/svg+xml</dc:format>
        <dc:type
           rdf:resource="http://purl.org/dc/dcmitype/StillImage" />
        <dc:title></dc:title>
      </cc:Work>
    </rdf:RDF>
  </metadata>
  <g
     inkscape:label="Calque 1"
     inkscape:groupmode="layer"
     id="layer1"
     transform="translate(0,435.82692)">
    <path
       id="path2985-3"
       style="fill:#1a1a1a;stroke:#000000;stroke-width:1.22139179999999992px;stroke-linecap:butt;stroke-linejoin:miter;stroke-opacity:1"
       inkscape:path-effect="#path-effect2987-1"
       inkscape:original-d="m 4.85714,775.0139 c 751.42857,30.19726 834.28572,110.72362 1099.99996,50.32888 265.7143,-60.39475 580,46.97366 580,-208.02627 0,-254.99984 14.2858,-1056.90737 14.2858,-1056.90737 l 171.047,2.50687 c 0,0 -75.2587,893.73358 -75.2587,1197.01282 0,303.27947 -335.6891,175.58282 -619.4991,247.41217 C 891.62207,1079.1704 803.12215,983.39783 0.519781,947.4833 z"
       d="m 4.85714,775.0139 c 360.05774,80.2959 734.11426,97.41031 1099.99996,50.32888 206.3959,-26.55861 418.2031,-77.15838 580,-208.02627 156.2514,-126.38252 252.3003,-324.15632 255.0164,-525.103277 2.7161,-200.946953 -87.9521,-401.244533 -240.7306,-531.804093 l 171.047,2.50687 c 152.8242,163.53442 234.5358,391.348588 220.491,614.73498 -14.0448,223.38638 -123.6464,439.17229 -295.7497,582.27784 C 1621.8921,903.81254 1397.5064,970.89869 1175.4321,1007.341 785.50542,1071.3278 381.92463,1050.7668 0.519781,947.4833 L 4.85714,775.0139"
       inkscape:connector-curvature="0"
       sodipodi:nodetypes="cssccsscc" />
    <flowRoot
       xml:space="preserve"
       id="flowRoot3743"
       style="font-size:36px;font-style:normal;font-variant:normal;font-weight:normal;font-stretch:normal;line-height:125%;letter-spacing:0px;word-spacing:0px;writing-mode:lr-tb;fill:#000000;fill-opacity:1;stroke:none;font-family:Calibri;-inkscape-font-specification:Calibri"
       transform="translate(-154.28571,-478.68406)"><flowRegion
         id="flowRegion3745"><rect
           id="rect3747"
           width="994.28564"
           height="37.142845"
           x="162.85715"
           y="56.760395" /></flowRegion><flowPara
         id="flowPara3749">7015E - Wireless Sensor Network - Goup 4 - Ondřej Čopák, Olivier Eble, Enzo Piccolino</flowPara></flowRoot>    <path
       sodipodi:type="arc"
       style="opacity:0.67032967;fill:#3dabff;fill-opacity:1;stroke:none"
       id="path3751"
       sodipodi:cx="594.28571"
       sodipodi:cy="1233.9032"
       sodipodi:rx="48.57143"
       sodipodi:ry="48.57143"
       d="m 642.85714,1233.9032 a 48.57143,48.57143 0 1 1 -97.14286,0 48.57143,48.57143 0 1 1 97.14286,0 z"
       transform="translate(-340,-438.68406)" />
    <path
       sodipodi:type="arc"
       style="opacity:0.67032967;fill:#3dabff;fill-opacity:1;stroke:none"
       id="path3751-3"
       sodipodi:cx="594.28571"
       sodipodi:cy="1233.9032"
       sodipodi:rx="48.57143"
       sodipodi:ry="48.57143"
       d="m 642.85714,1233.9032 a 48.57143,48.57143 0 1 1 -97.14286,0 48.57143,48.57143 0 1 1 97.14286,0 z"
       transform="translate(8.5714413,-407.25543)" />
    <path
       sodipodi:type="arc"
       style="opacity:0.67032967;fill:#3dabff;fill-opacity:1;stroke:none"
       id="path3751-4"
       sodipodi:cx="594.28571"
       sodipodi:cy="1233.9032"
       sodipodi:rx="48.57143"
       sodipodi:ry="48.57143"
       d="m 642.85714,1233.9032 a 48.57143,48.57143 0 1 1 -97.14286,0 48.57143,48.57143 0 1 1 97.14286,0 z"
       transform="translate(362.85715,-415.82686)" />
    <path
       sodipodi:type="arc"
       style="opacity:0.67032967;fill:#3dabff;fill-opacity:1;stroke:none"
       id="path3751-0"
       sodipodi:cx="594.28571"
       sodipodi:cy="1233.9032"
       sodipodi:rx="48.57143"
       sodipodi:ry="48.57143"
       d="m 642.85714,1233.9032 a 48.57143,48.57143 0 1 1 -97.14286,0 48.57143,48.57143 0 1 1 97.14286,0 z"
       transform="translate(1317.1429,-1050.1126)" />
    <path
       sodipodi:type="arc"
       style="opacity:0.67032967;fill:#3dabff;fill-opacity:1;stroke:none"
       id="path3751-33"
       sodipodi:cx="594.28571"
       sodipodi:cy="1233.9032"
       sodipodi:rx="48.57143"
       sodipodi:ry="48.57143"
       d="m 642.85714,1233.9032 a 48.57143,48.57143 0 1 1 -97.14286,0 48.57143,48.57143 0 1 1 97.14286,0 z"
       transform="translate(1194.2858,-761.54116)" />
    <path
       sodipodi:type="arc"
       style="opacity:0.67032967;fill:#3dabff;fill-opacity:1;stroke:none"
       id="path3751-7"
       sodipodi:cx="594.28571"
       sodipodi:cy="1233.9032"
       sodipodi:rx="48.57143"
       sodipodi:ry="48.57143"
       d="m 642.85714,1233.9032 a 48.57143,48.57143 0 1 1 -97.14286,0 48.57143,48.57143 0 1 1 97.14286,0 z"
       transform="translate(942.8571,-555.82688)" />
    <path
       sodipodi:type="arc"
       style="opacity:0.67032967;fill:#3dabff;fill-opacity:1;stroke:none"
       id="path3751-76"
       sodipodi:cx="594.28571"
       sodipodi:cy="1233.9032"
       sodipodi:rx="48.57143"
       sodipodi:ry="48.57143"
       d="m 642.85714,1233.9032 a 48.57143,48.57143 0 1 1 -97.14286,0 48.57143,48.57143 0 1 1 97.14286,0 z"
       transform="translate(654.2857,-461.54116)" />
    <path
       sodipodi:type="arc"
       style="opacity:0.67032967;fill:#3dabff;fill-opacity:1;stroke:none"
       id="path3751-02"
       sodipodi:cx="594.28571"
       sodipodi:cy="1233.9032"
       sodipodi:rx="48.57143"
       sodipodi:ry="48.57143"
       d="m 642.85714,1233.9032 a 48.57143,48.57143 0 1 1 -97.14286,0 48.57143,48.57143 0 1 1 97.14286,0 z"
       transform="translate(-354.2857,-221.54115)" />
    <path
       sodipodi:type="arc"
       style="opacity:0.67032967;fill:#3dabff;fill-opacity:1;stroke:none"
       id="path3751-02-4"
       sodipodi:cx="594.28571"
       sodipodi:cy="1233.9032"
       sodipodi:rx="48.57143"
       sodipodi:ry="48.57143"
       d="m 642.85714,1233.9032 a 48.57143,48.57143 0 1 1 -97.14286,0 48.57143,48.57143 0 1 1 97.14286,0 z"
       transform="translate(-5.7142757,-195.82687)" />
    <path
       sodipodi:type="arc"
       style="opacity:0.67032967;fill:#3dabff;fill-opacity:1;stroke:none"
       id="path3751-02-4-4"
       sodipodi:cx="594.28571"
       sodipodi:cy="1233.9032"
       sodipodi:rx="48.57143"
       sodipodi:ry="48.57143"
       d="m 642.85714,1233.9032 a 48.57143,48.57143 0 1 1 -97.14286,0 48.57143,48.57143 0 1 1 97.14286,0 z"
       transform="translate(388.57143,-201.54115)" />
    <path
       sodipodi:type="arc"
       style="opacity:0.67032967;fill:#3dabff;fill-opacity:1;stroke:none"
       id="path3751-02-4-4-0"
       sodipodi:cx="594.28571"
       sodipodi:cy="1233.9032"
       sodipodi:rx="48.57143"
       sodipodi:ry="48.57143"
       d="m 642.85714,1233.9032 a 48.57143,48.57143 0 1 1 -97.14286,0 48.57143,48.57143 0 1 1 97.14286,0 z"
       transform="translate(728.57144,-232.96972)" />
    <path
       sodipodi:type="arc"
       style="opacity:0.67032967;fill:#3dabff;fill-opacity:1;stroke:none"
       id="path3751-02-4-4-0-4"
       sodipodi:cx="594.28571"
       sodipodi:cy="1233.9032"
       sodipodi:rx="48.57143"
       sodipodi:ry="48.57143"
       d="m 642.85714,1233.9032 a 48.57143,48.57143 0 1 1 -97.14286,0 48.57143,48.57143 0 1 1 97.14286,0 z"
       transform="translate(1051.4286,-338.68401)" />
    <path
       sodipodi:type="arc"
       style="opacity:0.67032967;fill:#3dabff;fill-opacity:1;stroke:none"
       id="path3751-02-4-4-0-4-4"
       sodipodi:cx="594.28571"
       sodipodi:cy="1233.9032"
       sodipodi:rx="48.57143"
       sodipodi:ry="48.57143"
       d="m 642.85714,1233.9032 a 48.57143,48.57143 0 1 1 -97.14286,0 48.57143,48.57143 0 1 1 97.14286,0 z"
       transform="translate(1325.7143,-624.3983)" />
    <path
       inkscape:connector-curvature="0"
       id="path3720"
       d="m 1806.3046,1022.0423 c 0.25,-0.4044 -0.2097,-0.9461 -1.0215,-1.2038 -1.6431,-0.5215 -3.3013,-3.5965 -3.3013,-6.1222 0,-0.9063 14.1279,-62.84363 31.3953,-137.63842 24.8599,-107.68222 31.7876,-136.57669 33.2798,-138.80644 l 1.8846,-2.81591 0,-36.10104 0,-36.10103 -3.5056,-1.3388 c -9.0199,-3.44474 -13.9266,-10.19088 -13.9266,-19.14724 0,-20.85212 27.7554,-27.54238 37.4736,-9.03276 2.0118,3.83194 2.2481,5.00605 2.0055,9.96741 -0.3649,7.4623 -3.2225,12.30879 -9.3972,15.93792 -2.3814,1.39956 -4.7754,2.92904 -5.3202,3.39884 -0.765,0.65981 -0.9904,8.97988 -0.9904,36.56365 l 0,35.70946 1.9811,2.3545 c 1.0897,1.29497 2.1597,3.12928 2.3778,4.07626 0.2181,0.94698 14.4675,62.62724 31.6656,137.06725 21.4283,92.75045 31.1209,136.08645 30.7983,137.69985 -0.259,1.2949 -1.3035,3.0093 -2.321,3.8097 -1.0177,0.8005 -1.6246,1.681 -1.3489,1.9568 0.2758,0.2757 -0.8261,0.5014 -2.4486,0.5014 -4.7684,0 -7.195,-3.3516 -9.3211,-12.8742 -0.9588,-4.2941 -2.1662,-8.3859 -2.6833,-9.0931 -0.8561,-1.17067 -5.6452,-0.6081 -53.5247,6.2875 -45.3316,6.5286 -52.6964,7.7728 -53.3959,9.0206 -0.4463,0.796 -1.7486,2.4257 -2.894,3.6215 -1.1454,1.1958 -1.8882,2.3685 -1.6508,2.6059 0.2375,0.2375 -1.075,0.4318 -2.9166,0.4318 -1.8573,0 -3.1459,-0.3275 -2.8939,-0.7354 z m 64.1944,-16.7715 c 27.4689,-3.9633 50.4069,-7.58746 50.9736,-8.0538 0.8453,-0.69576 0.8453,-1.02335 0,-1.82585 -0.9802,-0.93033 -90.6145,-21.7672 -93.5601,-21.74943 -1.8513,0.0112 -2.1065,0.79584 -6.505,19.99728 -3.6462,15.9173 -3.932,18.8378 -1.8436,18.8378 0.5456,0 23.4664,-3.2427 50.9351,-7.206 z m 51.1318,-14.57151 c 0,-1.56563 -8.4702,-37.40443 -9.0694,-38.37388 -0.2929,-0.47397 -1.3231,-0.86177 -2.2892,-0.86177 -3.3859,0 -81.449,16.42246 -82.3511,17.32451 -0.6871,0.68707 -0.6272,1.18248 0.2431,2.01213 0.8713,0.83059 57.7945,14.31097 88.3162,20.91478 3.5722,0.77291 5.1504,0.46164 5.1504,-1.01577 z m -50.3159,-33.34752 c 20.9187,-4.24645 38.5562,-8.1999 39.1943,-8.78542 1.0189,-0.93477 1.0189,-1.19653 0,-2.14642 -0.6381,-0.595 -17.1772,-5.06799 -36.7536,-9.93997 -28.9623,-7.20784 -35.7749,-8.66706 -36.5673,-7.83244 -0.9907,1.04347 -8.2867,31.35561 -8.2731,34.37163 0.01,2.17946 0.798,2.872 2.7569,2.42253 0.8847,-0.203 18.724,-3.84347 39.6428,-8.08991 z m 38.2717,-14.8094 c 0.5912,-0.71227 -0.3478,-6.09306 -3.2839,-18.81897 -3.63,-15.73322 -4.3015,-17.84884 -5.7306,-18.05494 -2.1963,-0.31673 -61.5377,16.29351 -62.2338,17.41983 -0.3041,0.49203 -0.3839,1.33484 -0.1775,1.87291 0.2674,0.69657 64.7628,17.72256 70.1007,18.5057 0.2735,0.0401 0.8698,-0.3759 1.3251,-0.92453 z m -39.5028,-30.80664 c 15.9303,-4.41804 29.4864,-8.5186 30.1246,-9.11234 1.0187,-0.94789 1.0187,-1.21762 0,-2.21175 -0.8649,-0.84394 -31.8507,-10.58072 -50.6839,-15.92655 -0.6537,-0.18556 -1.6091,-0.0726 -2.1232,0.25104 -1.1601,0.7304 -8.4992,32.2594 -7.8829,33.86535 0.2462,0.64188 0.7073,1.16705 1.0245,1.16705 0.3171,0 13.6105,-3.61476 29.5409,-8.0328 z m 29.0556,-16.0869 c 0.5894,-1.536 -5.953,-29.88005 -7.2036,-31.20913 -0.8161,-0.86718 -4.5716,-0.0101 -21.4753,4.90111 -13.4073,3.89537 -20.8377,6.43281 -21.5035,7.34332 -1.2029,1.64511 -1.3413,4.75644 -0.2419,5.43594 1.2392,0.76585 47.0159,14.52603 48.575,14.60133 0.7764,0.0375 1.6085,-0.44516 1.8493,-1.07257 z m -26.8341,-28.66662 c 16.5436,-4.78316 18.4229,-5.49731 18.4229,-7.00105 0,-1.36269 -2.9263,-3.25605 -15.7119,-10.16629 -8.6416,-4.67046 -16.2838,-8.49173 -16.9828,-8.49173 -1.4999,0 -1.3284,-0.52382 -4.9027,14.9739 -3.5205,15.264 -3.5812,17.27579 -0.4941,16.37516 0.6852,-0.19992 9.5361,-2.76041 19.6686,-5.68999 z m 17.1671,-13.66472 c 0.4398,-0.71168 -15.6749,-71.18512 -16.4561,-71.96633 -1.7169,-1.71688 -3.0321,2.33757 -8.6949,26.8054 -3.3645,14.53725 -6.1091,27.35654 -6.0991,28.48733 0.016,1.84421 1.4669,2.84178 14.083,9.686 13.5672,7.36012 16.2595,8.45601 17.1671,6.9876 z M 1764.3439,737.42057 c -27.4768,-13.8486 -47.9191,-34.39387 -57.0589,-57.3463 -2.6497,-6.65407 -5.1059,-15.73907 -5.1413,-19.01707 -0.018,-1.64975 -0.2356,-2.04597 -0.7114,-1.29487 -0.4359,0.68806 -0.8017,-0.97147 -1.0042,-4.55617 -0.4293,-7.59728 0.143,-16.81679 1.0107,-16.28055 0.3869,0.2391 0.7034,-0.61613 0.7034,-1.90052 0,-6.84755 7.0885,-24.71363 13.7397,-34.63029 11.8815,-17.71447 33.0793,-34.97914 53.9127,-43.90938 l 3.6989,-1.58552 -6.4928,7.7055 c -16.5861,19.68395 -26.1486,40.16382 -30.4062,65.12039 -1.6814,9.85624 -1.6917,28.8398 -0.021,39.1791 3.9168,24.24224 14.5994,46.81981 31.2475,66.04154 3.114,3.59541 5.3885,6.52152 5.0544,6.50246 -0.3341,-0.019 -4.1732,-1.8318 -8.5313,-4.02832 z m 209.6726,-2.47414 c 16.6482,-19.22173 27.3307,-41.7993 31.2476,-66.04154 1.6704,-10.3393 1.6601,-29.32286 -0.021,-39.1791 -4.2577,-24.95657 -13.8201,-45.43644 -30.4062,-65.12039 l -6.4928,-7.7055 3.6988,1.58552 c 20.8334,8.93024 42.0313,26.19491 53.9127,43.90938 6.6513,9.91666 13.7397,27.78274 13.7397,34.63029 0,1.28439 0.3166,2.13962 0.7035,1.90052 0.8677,-0.53624 1.44,8.68327 1.0107,16.28055 -0.2026,3.5847 -0.5683,5.24423 -1.0042,4.55617 -0.4759,-0.7511 -0.6936,-0.35488 -0.7114,1.29487 -0.035,3.278 -2.4916,12.363 -5.1413,19.01707 -9.1706,23.02976 -29.8088,43.72627 -57.2199,57.38166 -4.4467,2.2152 -8.2857,4.02761 -8.5313,4.02761 -0.2456,0 2.1014,-2.9417 5.2154,-6.53711 z m -172.8342,-26.45116 c -9.4829,-6.28989 -20.8065,-18.01157 -25.5623,-26.46114 -15.8759,-28.20599 -10.0303,-61.37447 14.7038,-83.43135 5.4476,-4.85794 17.4069,-13.21764 18.9089,-13.21764 0.3897,0 -1.2336,2.77167 -3.6073,6.15924 -2.3738,3.3876 -5.9063,9.36014 -7.85,13.27234 -16.2457,32.69873 -13.1191,73.03893 7.9357,102.3902 2.2689,3.16306 3.6921,5.75103 3.1624,5.75103 -0.5296,0 -3.9907,-2.00821 -7.6912,-4.46268 z m 134.944,-1.28835 c 18.0436,-25.15351 23.0571,-58.29118 13.4555,-88.93811 -2.5874,-8.259 -7.9706,-19.01922 -13.3698,-26.72443 -2.3737,-3.38757 -3.997,-6.15924 -3.6074,-6.15924 1.5021,0 13.4613,8.3597 18.9089,13.21764 16.902,15.07249 25.7292,36.90564 23.2303,57.45775 -1.9385,15.94296 -8.047,28.36441 -19.8331,40.3299 -6.863,6.96755 -19.5801,16.56752 -21.9468,16.56752 -0.5297,0 0.8934,-2.58797 3.1624,-5.75103 z"
       style="fill:#803300" />
    <path
       sodipodi:type="arc"
       style="opacity:0.67032967;fill:#3dabff;fill-opacity:1;stroke:none"
       id="path3751-33-4"
       sodipodi:cx="594.28571"
       sodipodi:cy="1233.9032"
       sodipodi:rx="48.57143"
       sodipodi:ry="48.57143"
       d="m 642.85714,1233.9032 a 48.57143,48.57143 0 1 1 -97.14286,0 48.57143,48.57143 0 1 1 97.14286,0 z"
       transform="translate(1502.8572,-1041.5412)" />
    <rect
       style="opacity:0.67032967;fill:#ffffff;fill-opacity:1;stroke:#000000;stroke-width:5.26746416;stroke-miterlimit:4;stroke-opacity:1;stroke-dasharray:none"
       id="rect4700"
       width="624.2807"
       height="609.5954"
       x="103.57395"
       y="-64.063995"
       ry="54.849667" />
  </g>
</svg>
